# xmcd
#
# Track frame offsets: 
#        150
#        12887
#        25901
#        38265
#        52558
#        65891
#        78997
#        93935
#        108993
#        123182
#        137594
#        149969
#        163001
#        176356
#        190030
#        202182
#        215957
#        229843
#        241252
#        250613
#        263244
#        275645
#        288145
#        300431
#        311842
#        325949
#
# Disc length: 4513 seconds
#
# Revision: 0
# Processed by: cddbd v1.5.2PL0 Copyright (c) Steve Scherf et al.
# Submitted via: ExactAudioCopy v1.3
#
DISCID=6e119f1a
DTITLE=Jimmy Rogers - Chicago Bound
DYEAR=2016
DGENRE=Blues
TTITLE0=That's Alright
TTITLE1=Ludella
TTITLE2=Going Away Blues
TTITLE3=Today Today Blues
TTITLE4=The World's In A Tangle
TTITLE5=She Loves Another Man
TTITLE6=Money, Marbles And Chalk
TTITLE7=Chance To Love
TTITLE8=I Used To Have A Woman
TTITLE9=Back Door Friend
TTITLE10=The Last Time
TTITLE11=Out On The Road
TTITLE12=Left Me With A Broken Heart
TTITLE13=Act Like You Love Me
TTITLE14=Chicago Bound
TTITLE15=Sloppy Drunk
TTITLE16=Blues All Day Long
TTITLE17=You're The One
TTITLE18=If It Ain't Me
TTITLE19=Walkin' By Myself
TTITLE20=One Kiss
TTITLE21=I Can't Believe
TTITLE22=What Have I Done
TTITLE23=Trace Of You
TTITLE24=My Last Meal
TTITLE25=Rock This House
EXTD=
EXTT0=
EXTT1=
EXTT2=
EXTT3=
EXTT4=
EXTT5=
EXTT6=
EXTT7=
EXTT8=
EXTT9=
EXTT10=
EXTT11=
EXTT12=
EXTT13=
EXTT14=
EXTT15=
EXTT16=
EXTT17=
EXTT18=
EXTT19=
EXTT20=
EXTT21=
EXTT22=
EXTT23=
EXTT24=
EXTT25=
PLAYORDER=
